# xmcd
#
# Track frame offsets: 
#        150
#        21633
#        41580
#        61638
#        89399
#        106275
#        127020
#        157659
#        186313
#        211700
#        231429
#        251197
#
# Disc length: 3709 seconds
#
# Revision: 0
# Processed by: cddbd v1.5.2PL0 Copyright (c) Steve Scherf et al.
# Submitted via: ExactAudioCopy v0.99pb5
#
DISCID=a10e7b0c
DTITLE=Rich Robinson - Through A Crooked Sun
DYEAR=2011
DGENRE=Rock
TTITLE0=Gone Away
TTITLE1=It's Not Easy
TTITLE2=Lost And Found
TTITLE3=I Don't Hear the Sound of You
TTITLE4=Hey Fear
TTITLE5=All Along The Way
TTITLE6=Follow you Forever
TTITLE7=Standing On The Surface Of The Sun
TTITLE8=Bye Bye Baby
TTITLE9=Falling Again
TTITLE10=Station Man
TTITLE11=Fire Around
EXTD=
EXTT0=
EXTT1=
EXTT2=
EXTT3=
EXTT4=
EXTT5=
EXTT6=
EXTT7=
EXTT8=
EXTT9=
EXTT10=
EXTT11=
PLAYORDER=
